<svg width="10" height="10" viewBox="0 0 10 10" fill="none" xmlns="http://www.w3.org/2000/svg">
<path d="M8.93398 0.3125H1.06602C0.65 0.3125 0.3125 0.65 0.3125 1.06602V8.93398C0.3125 9.35 0.65 9.6875 1.06602 9.6875H8.93398C9.35 9.6875 9.6875 9.35 9.6875 8.93398V1.06602C9.6875 0.65 9.35 0.3125 8.93398 0.3125ZM8.93398 8.9375C3.68633 8.93633 1.0625 8.93516 1.0625 8.93398C1.06367 3.68633 1.06484 1.0625 1.06602 1.0625C6.31367 1.06367 8.9375 1.06484 8.9375 1.06602C8.93633 6.31367 8.93516 8.9375 8.93398 8.9375ZM1.70234 3.82695H3.09336V8.30117H1.70234V3.82695ZM2.39844 3.21523C2.84258 3.21523 3.20469 2.8543 3.20469 2.40898C3.20469 2.30311 3.18383 2.19826 3.14332 2.10045C3.1028 2.00263 3.04341 1.91375 2.96854 1.83888C2.89368 1.76401 2.80479 1.70462 2.70698 1.66411C2.60916 1.62359 2.50432 1.60273 2.39844 1.60273C2.29256 1.60273 2.18772 1.62359 2.0899 1.66411C1.99208 1.70462 1.9032 1.76401 1.82833 1.83888C1.75347 1.91375 1.69408 2.00263 1.65356 2.10045C1.61304 2.19826 1.59219 2.30311 1.59219 2.40898C1.59102 2.8543 1.95195 3.21523 2.39844 3.21523ZM5.35508 6.0875C5.35508 5.50391 5.46641 4.93906 6.18945 4.93906C6.90195 4.93906 6.9125 5.60586 6.9125 6.125V8.30117H8.30234V5.84727C8.30234 4.64258 8.04219 3.71562 6.63477 3.71562C5.95859 3.71562 5.50508 4.08711 5.31875 4.43867H5.3V3.82695H3.96523V8.30117H5.35508V6.0875Z" fill="#AF48FF"/>
</svg>
