<svg width="12" height="10" viewBox="0 0 12 10" fill="none" xmlns="http://www.w3.org/2000/svg">
<path d="M10.875 0.875H1.125C0.917578 0.875 0.75 1.04258 0.75 1.25V8.75C0.75 8.95742 0.917578 9.125 1.125 9.125H10.875C11.0824 9.125 11.25 8.95742 11.25 8.75V1.25C11.25 1.04258 11.0824 0.875 10.875 0.875ZM10.4062 2.17344V8.28125H1.59375V2.17344L1.27031 1.92148L1.73086 1.32969L2.23242 1.71992H9.76875L10.2703 1.32969L10.7309 1.92148L10.4062 2.17344ZM9.76875 1.71875L6 4.64844L2.23125 1.71875L1.72969 1.32852L1.26914 1.92031L1.59258 2.17227L5.5957 5.28477C5.71083 5.3742 5.85246 5.42275 5.99824 5.42275C6.14403 5.42275 6.28566 5.3742 6.40078 5.28477L10.4062 2.17344L10.7297 1.92148L10.2691 1.32969L9.76875 1.71875Z" fill="#AF48FF"/>
</svg>
